# xmcd CD database file
#
# Track frame offsets:
#	150
#	12232
#	24777
#	37097
#	50992
#	64311
#	76527
#	89573
#	101698
#	113708
#	125830
#	138307
#	151214
#	162763
#	174589
#	188068
#	200005
#	214125
#
# Disc length: 3042 seconds
#
# Revision: 0
# Processed by: cddbd v1.5.1PL2 Copyright (c) Steve Scherf et al.
# Submitted via: CDex 1.51
#
DISCID=f70be012
DTITLE=The Andrews Sisters - Vocal Jazz
DYEAR=2001
DGENRE=Jazz
TTITLE0=Boogie, Woogie Bugle Boy
TTITLE1=Oh Johnny! Oh, Johnny Oh!
TTITLE2=Begin The Beguine
TTITLE3=Ferryboat Serenade
TTITLE4=When Prince Of A Fella
TTITLE5=South American Way
TTITLE6=Chattanooga Choo Choo
TTITLE7=Where Have We Met Before
TTITLE8=Ti-Pi-Tin
TTITLE9=Just A Simple Melody
TTITLE10=Joseph Joseph
TTITLE11=Let's Have Another One
TTITLE12=Say 'Si Si'
TTITLE13=Scrub Me Mother With A Boogie Beat
TTITLE14=Don't Sit Under The Apple Tree
TTITLE15=Rhumboogie
TTITLE16=Bei Mir Bist Du Schoen
TTITLE17=Well All Right
EXTD=YEAR: 2001
EXTT0=
EXTT1=
EXTT2=
EXTT3=
EXTT4=
EXTT5=
EXTT6=
EXTT7=
EXTT8=
EXTT9=
EXTT10=
EXTT11=
EXTT12=
EXTT13=
EXTT14=
EXTT15=
EXTT16=
EXTT17=
PLAYORDER=
